<svg 
          width="32" 
          height="40" fill="none" 
          xmlns="http://www.w3.org/2000/svg">
          <path d="M 16 20 C 13.799999952316284 20 12 18.200000047683716 12 16 C 12 13.799999952316284 13.799999952316284 12 16 12 C 18.200000047683716 12 20 13.799999952316284 20 16 C 20 18.200000047683716 18.200000047683716 20 16 20 Z M 28 16.399999618530273 C 28 9.139999389648438 22.699999809265137 4 16 4 C 9.300000190734863 4 4 9.139999389648438 4 16.399999618530273 C 4 21.079999446868896 7.899999618530273 27.28000020980835 16 34.68000030517578 C 24.100000381469727 27.28000020980835 28 21.079999446868896 28 16.399999618530273 Z M 16 0 C 24.399999618530273 0 32 6.439999580383301 32 16.399999618530273 C 32 23.03999948501587 26.65999984741211 30.899999618530273 16 40 C 5.340000152587891 30.899999618530273 0 23.03999948501587 0 16.399999618530273 C 0 6.439999580383301 7.600000381469727 0 16 0 Z" fill="rgb(172.00000494718552,27.000000290572643,61.00000016391277)"/>
        </svg>